<svg xmlns="http://www.w3.org/2000/svg" width="106.74" height="172" viewBox="0 0 106.74 172">
  <defs>
    <style>
      .cls-1 {
        fill: #cedfc0;
        fill-rule: evenodd;
      }
    </style>
  </defs>
  <path id="_" data-name="?" class="cls-1" d="M1487.38,7171.76a13.385,13.385,0,0,1-4.5-10.5,16.308,16.308,0,0,1,4.25-10.75,51.629,51.629,0,0,1,10.5-9.25q6.255-4.26,12.38-9.25a41.923,41.923,0,0,0,10.37-13,37.84,37.84,0,0,0,4.25-18q0-17.76-14-28.63t-38-10.87q-34.005,0-54.75,24.25l20.25,22.75q13-15.51,30.75-15.5,9.75,0,14.63,4a12.651,12.651,0,0,1,4.87,10.25q0,5.49-5.75,11a69.062,69.062,0,0,1-12.5,9.5,42.053,42.053,0,0,0-12.5,12,30.1,30.1,0,0,0-5.75,18,31.379,31.379,0,0,0,8.25,22Zm5,41.5a20.49,20.49,0,1,0-6,14.25A19.467,19.467,0,0,0,1492.38,7213.26Z" transform="translate(-1417.88 -7061.5)"/>
</svg>
