<svg xmlns="http://www.w3.org/2000/svg" xmlns:xlink="http://www.w3.org/1999/xlink"><symbol id="facebook" viewBox="0 0 128 128"><g><path d="M64.046,114.027c-27.642,0-50.129-22.486-50.129-50.128c0-27.64,22.487-50.127,50.129-50.127s50.129,22.487,50.129,50.127   C114.175,91.541,91.688,114.027,64.046,114.027z M64.046,17.772c-25.436,0-46.129,20.692-46.129,46.127   c0,25.435,20.693,46.128,46.129,46.128s46.129-20.693,46.129-46.128C110.175,38.464,89.481,17.772,64.046,17.772z"/></g><path d="M69.979,91.465H55.405V65.898h-5.289v-12.81h5.289v-3.291c0-8.935,4.528-13.465,13.459-13.465h9.061v12.814h-6.41  c-0.921,0-1.301,0.113-1.427,0.165c-0.062,0.198-0.093,0.656-0.093,1.364l-0.009,2.412h8.213l-1.36,12.81h-6.859V91.465z   M59.405,87.465h6.574V61.899h7.262l0.511-4.811h-7.779l0.022-6.419c0-2.865,0.669-5.522,5.52-5.522h2.41v-4.814h-5.061  c-6.719,0-9.459,2.742-9.459,9.465v7.291h-5.289v4.811h5.289V87.465z"/></symbol><symbol id="hard-disk" viewBox="0 0 489.801 489.801">
  <g>
    <path d="M377.318,0H112.482C88.119,0,68.299,19.82,68.299,44.184v401.434c0,24.363,19.82,44.184,44.184,44.184h264.836
      c24.363,0,44.184-19.82,44.184-44.184V44.184C421.502,19.82,401.682,0,377.318,0z M377.318,481.301H112.482
      c-19.676,0-35.684-16.008-35.684-35.684v-40.766h24.359c2.348,0,4.25-1.902,4.25-4.25c0-2.348-1.902-4.25-4.25-4.25H76.799V44.184
      c0-19.676,16.008-35.684,35.684-35.684h264.836c19.676,0,35.684,16.008,35.684,35.684v38.684h-28.358
      c-2.348,0-4.25,1.902-4.25,4.25c0,2.348,1.902,4.25,4.25,4.25h28.358v354.25C413.002,465.293,396.994,481.301,377.318,481.301z"/>
    <path d="M366.65,250.66c0-17.232-13.197-31.25-29.42-31.25c-11.535,0-20.918-10.207-20.918-22.75v-2.172
      c0-12.545,9.383-22.75,20.918-22.75c16.223,0,29.42-14.02,29.42-31.25V86.9c0-17.232-14.02-31.25-31.25-31.25h-181
      c-17.232,0-31.25,14.018-31.25,31.25v53.588c0,17.23,13.197,31.25,29.418,31.25c11.535,0,20.92,10.205,20.92,22.75v2.172
      c0,12.543-9.385,22.75-20.92,22.75c-16.221,0-29.418,14.02-29.418,31.25V402.9c0,17.23,14.018,31.25,31.25,31.25h181
      c17.23,0,31.25-14.02,31.25-31.25V250.66z M358.15,402.9c0,12.543-10.207,22.75-22.75,22.75h-181
      c-12.545,0-22.75-10.207-22.75-22.75V250.66c0-12.543,9.385-22.75,20.918-22.75c16.223,0,29.42-14.02,29.42-31.25v-2.172
      c0-0.377-0.016-0.752-0.027-1.125h51.191c2.348,0,4.25-1.902,4.25-4.25c0-2.348-1.902-4.25-4.25-4.25h-52.6
      c-3.83-12.535-14.924-21.625-27.984-21.625c-11.535,0-20.918-10.207-20.918-22.75V86.9c0-12.545,10.205-22.75,22.75-22.75h181
      c12.543,0,22.75,10.205,22.75,22.75v53.588c0,12.543-9.385,22.75-20.92,22.75c-16.221,0-29.418,14.018-29.418,31.25v2.172
      c0,17.23,13.197,31.25,29.418,31.25c11.535,0,20.92,10.205,20.92,22.75V402.9z"/>
    <path d="M147.488,214.148c10.613,0,19.25-8.635,19.25-19.25c0-10.613-8.637-19.25-19.25-19.25c-10.615,0-19.25,8.637-19.25,19.25
      C128.238,205.514,136.873,214.148,147.488,214.148z M147.488,184.148c5.928,0,10.75,4.822,10.75,10.75
      c0,5.928-4.822,10.75-10.75,10.75s-10.75-4.822-10.75-10.75C136.738,188.971,141.561,184.148,147.488,184.148z"/>
    <path d="M342.313,175.648c-10.613,0-19.25,8.637-19.25,19.25c0,10.615,8.637,19.25,19.25,19.25c10.615,0,19.25-8.635,19.25-19.25
      C361.563,184.285,352.928,175.648,342.313,175.648z M342.313,205.648c-5.928,0-10.75-4.822-10.75-10.75
      c0-5.928,4.822-10.75,10.75-10.75s10.75,4.822,10.75,10.75C353.063,200.826,348.24,205.648,342.313,205.648z"/>
    <path d="M384.4,59.65c10.613,0,19.25-8.637,19.25-19.25c0-10.615-8.637-19.25-19.25-19.25c-10.615,0-19.25,8.635-19.25,19.25
      C365.15,51.014,373.785,59.65,384.4,59.65z M384.4,29.65c5.928,0,10.75,4.822,10.75,10.75s-4.822,10.75-10.75,10.75
      s-10.75-4.822-10.75-10.75S378.473,29.65,384.4,29.65z"/>
    <path d="M124.65,40.4c0-10.615-8.637-19.25-19.25-19.25c-10.615,0-19.25,8.635-19.25,19.25c0,10.613,8.635,19.25,19.25,19.25
      C116.014,59.65,124.65,51.014,124.65,40.4z M105.4,51.15c-5.928,0-10.75-4.822-10.75-10.75s4.822-10.75,10.75-10.75
      c5.928,0,10.75,4.822,10.75,10.75S111.328,51.15,105.4,51.15z"/>
    <path d="M384.4,430.15c-10.615,0-19.25,8.635-19.25,19.25c0,10.613,8.635,19.25,19.25,19.25c10.613,0,19.25-8.637,19.25-19.25
      C403.65,438.785,395.014,430.15,384.4,430.15z M384.4,460.15c-5.928,0-10.75-4.822-10.75-10.75s4.822-10.75,10.75-10.75
      s10.75,4.822,10.75,10.75S390.328,460.15,384.4,460.15z"/>
    <path d="M105.4,430.15c-10.615,0-19.25,8.635-19.25,19.25c0,10.613,8.635,19.25,19.25,19.25c10.613,0,19.25-8.637,19.25-19.25
      C124.65,438.785,116.014,430.15,105.4,430.15z M105.4,460.15c-5.928,0-10.75-4.822-10.75-10.75s4.822-10.75,10.75-10.75
      c5.928,0,10.75,4.822,10.75,10.75S111.328,460.15,105.4,460.15z"/>
    <path d="M244.9,218.65c-55.279,0-100.25,44.971-100.25,100.25c0,55.277,44.971,100.25,100.25,100.25
      c55.277,0,100.25-44.973,100.25-100.25C345.15,263.621,300.178,218.65,244.9,218.65z M244.9,410.65
      c-50.592,0-91.75-41.16-91.75-91.75c0-5.998,0.584-11.861,1.689-17.543h49.814c2.348,0,4.25-1.902,4.25-4.25
      c0-2.348-1.902-4.25-4.25-4.25H156.92c11.252-37.945,46.432-65.707,87.98-65.707c48.391,0,88.146,37.658,91.514,85.207h-20.766
      c-2.348,0-4.25,1.902-4.25,4.25c0,2.348,1.902,4.25,4.25,4.25h20.977c-0.068,3.209-0.299,6.377-0.689,9.498H291.65
      c-2.348,0-4.25,1.902-4.25,4.25c0,2.348,1.902,4.25,4.25,4.25h42.807C325.322,379.883,288.639,410.65,244.9,410.65z"/>
    <path d="M244.9,293.561c-13.973,0-25.338,11.367-25.338,25.34c0,13.971,11.365,25.338,25.338,25.338
      c13.971,0,25.338-11.367,25.338-25.338C270.238,304.928,258.871,293.561,244.9,293.561z M244.9,335.738
      c-9.285,0-16.838-7.555-16.838-16.838c0-9.285,7.553-16.84,16.838-16.84c9.283,0,16.838,7.555,16.838,16.84
      C261.738,328.184,254.184,335.738,244.9,335.738z"/>
    <path d="M340.65,131.035v-35c0-7.858-6.393-14.25-14.25-14.25h-163c-7.857,0-14.25,6.392-14.25,14.25v35
      c0,7.857,6.393,14.25,14.25,14.25h163C334.258,145.285,340.65,138.893,340.65,131.035z M157.65,131.035v-35
      c0-3.172,2.58-5.75,5.75-5.75h163c3.172,0,5.75,2.578,5.75,5.75v3.332h-98.998c-2.348,0-4.25,1.902-4.25,4.25
      c0,2.348,1.902,4.25,4.25,4.25h98.998v23.168c0,3.17-2.578,5.75-5.75,5.75h-163C160.23,136.785,157.65,134.205,157.65,131.035z"/>
  </g>
</symbol><symbol id="label-decor" viewBox="0 0 20.812 97.59">
  <path d="M211.2,2100.73h1.6v94.4h-1.6v-94.4Zm0.8,76.8a10.4,10.4,0,1,1-10.4,10.4A10.4,10.4,0,0,1,212,2177.53Z" transform="translate(-201.594 -2100.72)"/>
</symbol><symbol id="linkedin" viewBox="0 0 128 128">
  <g>
    <path d="M64.044,114.135c-27.642,0-50.129-22.488-50.129-50.127c0-27.642,22.487-50.129,50.129-50.129 c27.643,0,50.131,22.487,50.131,50.129C114.175,91.646,91.687,114.135,64.044,114.135z M64.044,17.878 c-25.436,0-46.129,20.693-46.129,46.129c0,25.434,20.693,46.127,46.129,46.127c25.437,0,46.131-20.693,46.131-46.127 C110.175,38.572,89.48,17.878,64.044,17.878z"/>
  </g>
  <g>
    <path d="M49.675,82.566c-1.104,0-2-0.896-2-2V53.384c0-1.104,0.896-2,2-2s2,0.896,2,2v27.182 C51.675,81.67,50.779,82.566,49.675,82.566z"/>
    <path d="M62.634,82.566c-1.104,0-2-0.896-2-2V53.382c0-1.104,0.896-2,2-2s2,0.896,2,2v27.184 C64.634,81.67,63.738,82.566,62.634,82.566z"/>
    <path d="M80.489,82.566c-1.104,0-2-0.896-2-2V62.533c0-3.821-3.107-6.93-6.928-6.93s-6.928,3.108-6.928,6.93c0,1.104-0.896,2-2,2 s-2-0.896-2-2c0-6.026,4.902-10.93,10.928-10.93s10.928,4.903,10.928,10.93v18.034C82.489,81.67,81.594,82.566,80.489,82.566z"/>
    <circle cx="49.672" cy="43.517" r="2.509"/>
  </g>
</symbol><symbol id="login" viewBox="0 0 32 32"><title/><g id="Fill"><path d="M25,2H16V4h9a1,1,0,0,1,1,1V27a1,1,0,0,1-1,1H16v2h9a3,3,0,0,0,3-3V5A3,3,0,0,0,25,2Z"/><path d="M16,22.4l5-5a2,2,0,0,0,0-2.82l-5-5L14.55,11l4,4H4v2H18.59l-4,4Z"/></g></symbol><symbol id="pinterest" viewBox="0 0 128 128">
  <g>
    <path d="M63.999,114.176c-27.642,0-50.129-22.486-50.129-50.128c0-27.642,22.487-50.129,50.129-50.129s50.129,22.487,50.129,50.129 C114.128,91.689,91.641,114.176,63.999,114.176z M63.999,17.918c-25.436,0-46.129,20.693-46.129,46.129 c0,25.435,20.693,46.128,46.129,46.128s46.129-20.693,46.129-46.128C110.128,38.612,89.435,17.918,63.999,17.918z"/>
  </g>
  <g>
    <path d="M65.499,77.574c-2.467,0-4.856-0.803-6.438-1.336c-0.457-0.154-0.889-0.299-1.105-0.348 c-1.077-0.244-1.753-1.314-1.51-2.393s1.316-1.752,2.393-1.51c0.416,0.096,0.894,0.256,1.498,0.459 c1.414,0.477,3.352,1.127,5.163,1.127c8.415,0,13.624-8.109,13.624-15.625c0-8.322-6.834-15.623-14.624-15.623 c-7.885,0-15.624,8.233-15.624,16.623c0,1.104-0.896,2-2,2s-2-0.896-2-2c0-10.601,9.537-20.623,19.624-20.623 c10.096,0,18.624,8.986,18.624,19.623C83.123,68.771,75.217,77.574,65.499,77.574z"/>
    <path d="M52.875,92.457c-0.228,0-0.458-0.039-0.684-0.121c-1.038-0.379-1.573-1.525-1.196-2.564 c0.046-0.125,2.476-6.813,5.256-14.889c-4.195-3.236-5.064-8.084-2.352-13.493c2.332-4.649,8.401-10.8,11.499-9.604 c0.981,0.38,1.938,1.501,1.401,3.405c-3.505,12.442-11.96,35.715-12.045,35.948C54.459,91.951,53.691,92.457,52.875,92.457z M61.987,57.392c-2.214,1.997-4.983,5.385-5.55,8.815c-0.298,1.807,0.092,3.293,1.219,4.561 C59.207,66.186,60.761,61.446,61.987,57.392z"/>
  </g>
</symbol><symbol id="register" viewBox="0 0 1000 1000">
<metadata> Svg Vector Icons : http://www.onlinewebfonts.com/icon </metadata>
<g><path d="M108.1,949.3c-0.6,27.1-23,48.5-50.1,48c-27.1-0.6-48.5-23-48-50.1c5.4-255.2,259.2-418.6,490-418.6c236.2,0,484.6,163.4,490,418.6c0.5,27.1-21,49.5-48,50.1c-27.1,0.5-49.5-21-50.1-48C887.7,750.1,685.2,626.7,500,626.7C314,626.7,112.1,756.4,108.1,949.3"/><path d="M500,493c108.2,0,196.2-88,196.2-196.2c0-108.1-88-196.2-196.2-196.2c-108.1,0-196.1,88-196.1,196.2C303.9,405,391.8,493,500,493 M500,591.1c-162.5,0-294.2-131.7-294.2-294.2C205.8,134.4,337.5,2.7,500,2.7c162.5,0,294.3,131.7,294.3,294.2C794.2,459.4,662.5,591.1,500,591.1L500,591.1L500,591.1z"/></g>
</symbol><symbol id="send" viewBox="0 0 26 20">
  <path d="M1683.27,5644.61h-19.34a3.105,3.105,0,0,0-3.13,3.08v13.03a3.107,3.107,0,0,0,3.13,3.09h19.34a3.107,3.107,0,0,0,3.13-3.09V5647.7A3.114,3.114,0,0,0,1683.27,5644.61Zm1.7,16.11a1.688,1.688,0,0,1-1.7,1.68h-19.34a1.688,1.688,0,0,1-1.7-1.68V5647.7a1.694,1.694,0,0,1,1.7-1.68h19.34a1.694,1.694,0,0,1,1.7,1.68v13.02h0Zm-8.03-6.67,6.27-5.54a0.7,0.7,0,0,0,.05-0.99,0.723,0.723,0,0,0-1.01-.06l-8.64,7.64-1.68-1.48a0.02,0.02,0,0,1-.01-0.02,1.059,1.059,0,0,1-.12-0.1l-6.85-6.04a0.722,0.722,0,0,0-1.01.06,0.689,0.689,0,0,0,.05.99l6.34,5.58-6.31,5.82a0.7,0.7,0,0,0-.03,1,0.714,0.714,0,0,0,.52.23,0.752,0.752,0,0,0,.49-0.19l6.4-5.91,1.74,1.53a0.736,0.736,0,0,0,.48.18,0.692,0.692,0,0,0,.47-0.18l1.79-1.58,6.37,5.96a0.7,0.7,0,0,0,.49.2,0.744,0.744,0,0,0,.52-0.22,0.7,0.7,0,0,0-.03-1Z" transform="translate(-1660.81 -5644.62)" fill="currentColor" fill-rule="evenodd"/>
</symbol><symbol id="slider-arrow" viewBox="0 0 22.37 44.75">
  <path d="M1870.67,3604.66l-19.12,20.22a1.312,1.312,0,0,0,0,1.79,1.151,1.151,0,0,0,1.7,0l19.97-21.12a1.312,1.312,0,0,0,0-1.79l-19.97-21.11a1.184,1.184,0,0,0-.85-0.37,1.14,1.14,0,0,0-.84.37,1.325,1.325,0,0,0,0,1.8Z" transform="translate(-1851.22 -3582.28)" fill="currentColor"/>
</symbol><symbol id="tap" viewBox="0 0 512.001 512.001">
  <path d="M401.809,212.523c-12.295-1.17-24.556,2.892-33.639,11.15c-1.122,1.021-2.186,2.096-3.188,3.217
    c-6.805-12.704-19.329-21.819-33.946-23.214c-12.295-1.17-24.556,2.892-33.639,11.15c-1.122,1.021-2.186,2.096-3.188,3.217
    c-5.941-11.089-16.24-19.443-28.485-22.315c21.223-21.098,33.958-50.2,33.958-81.275C299.681,51.344,248.337,0,185.227,0
    S70.774,51.344,70.774,114.454c0,46.302,28.254,88.244,70.773,105.817v49.155l-31.869,22.764
    c-18.882,13.488-26.638,37.341-19.3,59.353l31.431,94.297c13.193,39.573,50.082,66.162,91.796,66.162h130.862
    c53.354,0,96.76-43.406,96.76-96.76V257.522C441.227,234.396,423.913,214.632,401.809,212.523z M87.361,114.454
    c0-53.963,43.903-97.866,97.866-97.866c53.963,0,97.866,43.903,97.866,97.866c0,37.248-21.382,71.191-54.186,87.594v-21.686
    c21.942-14.579,35.387-39.4,35.387-65.908c0-43.597-35.47-79.067-79.067-79.067c-43.597,0-79.067,35.47-79.067,79.067
    c0,26.506,13.446,51.328,35.387,65.908v21.686C108.745,185.645,87.361,151.701,87.361,114.454z M189.489,70.978
    c-12.296-1.172-24.556,2.89-33.638,11.149c-9.09,8.265-14.304,20.048-14.304,32.327v44.644
    c-11.839-11.626-18.799-27.699-18.799-44.644c0-34.451,28.028-62.479,62.479-62.479c34.451,0,62.479,28.028,62.479,62.479
    c0,16.947-6.96,33.019-18.799,44.645v-43.123C228.908,92.85,211.594,73.084,189.489,70.978z M344.467,495.413H213.604
    c-34.564,0-65.129-22.03-76.059-54.819l-31.431-94.296c-5.022-15.061,0.285-31.381,13.205-40.609l22.228-15.878v72.352
    c0,4.58,3.712,8.294,8.294,8.294c4.581,0,8.294-3.713,8.294-8.294V114.454c0-7.617,3.235-14.927,8.874-20.053
    c5.716-5.197,13.146-7.652,20.906-6.91c13.686,1.304,24.406,13.816,24.406,28.484v175.413c0,4.58,3.712,8.294,8.294,8.294
    c4.581,0,8.294-3.713,8.294-8.294v-53.08c0-7.617,3.235-14.927,8.874-20.053c5.715-5.196,13.137-7.657,20.906-6.91
    c13.685,1.305,24.405,13.817,24.405,28.485v7.325v53.08c0,4.58,3.712,8.294,8.294,8.294s8.294-3.713,8.294-8.294v-53.08
    c0-7.617,3.235-14.927,8.874-20.053c5.715-5.196,13.137-7.657,20.906-6.91c13.685,1.305,24.405,13.817,24.405,28.485V256v53.08
    c0,4.58,3.712,8.294,8.294,8.294s8.294-3.713,8.294-8.294V256c0-7.617,3.234-14.927,8.874-20.053
    c5.715-5.196,13.137-7.657,20.906-6.91c13.685,1.305,24.405,13.817,24.405,28.485V415.24h0.003
    C424.64,459.448,388.675,495.413,344.467,495.413z"/>
</symbol><symbol id="title-dash--long" viewBox="0 0 332.778 8">
  <path d="M864.8,542.382H876a4,4,0,1,1,0,8H864.8A4,4,0,1,1,864.8,542.382Zm-32,0h1.6a4,4,0,1,1,0,8h-1.6A4,4,0,1,1,832.8,542.382Zm62.4,0h262.4a4,4,0,1,1,0,8H895.2A4,4,0,1,1,895.2,542.382Z" transform="translate(-828.812 -542.375)"/>
</symbol><symbol id="title-dash" viewBox="0 0 102.406 4.78">
  <path d="M772,1371.68h76.8a2.4,2.4,0,1,1,0,4.8H772A2.4,2.4,0,0,1,772,1371.68Zm89.6,0h8a2.4,2.4,0,1,1,0,4.8h-8A2.4,2.4,0,0,1,861.6,1371.68Z" transform="translate(-769.594 -1371.69)"/>
</symbol><symbol id="twitter" viewBox="0 0 128 128">
  <path d="M56.771,85.34c-5.303,0-10.463-1.512-14.924-4.373c-0.785-0.504-1.118-1.484-0.801-2.363  c0.316-0.877,1.195-1.412,2.126-1.305c0.599,0.074,1.223,0.109,1.909,0.109c2.14,0,4.205-0.404,6.125-1.189  c-2.447-1.324-4.362-3.561-5.249-6.336c-0.174-0.547-0.104-1.135,0.179-1.619c-2.133-2.029-3.441-4.893-3.441-7.998v-0.111  c0-0.708,0.374-1.362,0.983-1.723c0.032-0.019,0.065-0.037,0.099-0.054c-0.654-1.425-1.006-2.993-1.006-4.612  c0-1.949,0.517-3.867,1.494-5.547c0.33-0.567,0.918-0.937,1.572-0.988c0.648-0.054,1.293,0.223,1.707,0.731  c3.733,4.584,9.043,7.592,14.825,8.465c0.094-6,5.006-10.853,11.03-10.853c2.641,0,5.202,0.958,7.19,2.661  c1.436-0.376,2.813-0.952,4.108-1.717c0.281-0.169,0.607-0.271,0.957-0.283c0.024-0.001,0.031-0.003,0.078-0.001  c1.103,0.002,1.996,0.896,1.996,2c0,0.265-0.052,0.517-0.145,0.748c-0.097,0.289-0.206,0.573-0.326,0.852  c0.461,0.075,0.893,0.311,1.209,0.686c0.574,0.682,0.628,1.659,0.134,2.399c-1.146,1.718-2.536,3.238-4.141,4.532  c0.001,0.066,0.001,0.133,0.001,0.199C84.462,71.262,74.104,85.34,56.771,85.34z M50.834,80.586c1.927,0.498,3.92,0.754,5.937,0.754  c14.83,0,23.691-12.045,23.691-23.689c0-0.362-0.009-0.719-0.025-1.075c-0.025-0.561,0.186-1.101,0.572-1.493  c-0.527-0.212-0.955-0.646-1.148-1.213c-0.165-0.487-0.132-1.001,0.063-1.446c-0.523-0.018-1.026-0.239-1.393-0.63  c-1.323-1.41-3.194-2.219-5.132-2.219c-3.877,0-7.031,3.152-7.031,7.027c0,0.54,0.062,1.08,0.184,1.606  c0.141,0.611-0.013,1.253-0.416,1.734c-0.402,0.481-1.007,0.761-1.633,0.713c-6.64-0.331-12.923-3.063-17.695-7.611  c-0.024,0.239-0.037,0.48-0.037,0.722c0,2.357,1.169,4.545,3.126,5.853c0.742,0.495,1.066,1.422,0.795,2.271  c-0.271,0.848-1.022,1.421-1.963,1.391c-0.474-0.014-0.946-0.059-1.415-0.135c0.909,2.018,2.747,3.557,5.017,4.012  c0.908,0.184,1.571,0.965,1.605,1.889c0.033,0.926-0.572,1.752-1.465,2c-0.382,0.105-0.771,0.191-1.166,0.254  c1.271,1.369,3.068,2.209,5.023,2.242c0.847,0.016,1.592,0.561,1.861,1.363s0.006,1.688-0.66,2.209  C55.504,78.707,53.244,79.873,50.834,80.586z"/>
  <path d="M64.007,114.025c-27.642,0-50.129-22.486-50.129-50.126c0-27.642,22.487-50.129,50.129-50.129s50.129,22.487,50.129,50.129   C114.136,91.539,91.648,114.025,64.007,114.025z M64.007,17.77c-25.436,0-46.129,20.693-46.129,46.129   c0,25.435,20.693,46.126,46.129,46.126s46.129-20.691,46.129-46.126C110.136,38.463,89.442,17.77,64.007,17.77z"/>
</symbol><symbol id="usb" viewBox="0 0 448.021 448.021">
  <path d="M316.373,144.021h-0.698V32c0-17.645-14.355-32-32-32H163.948c-17.645,0-32,14.355-32,32v112.021h-2.164
    c-12.04,0-21.836,9.803-21.836,21.853v116.03c0,25.09,21.757,52.259,41.914,63.042c0.055,0.029,0.11,0.058,0.166,0.086
    l38.149,19.271v11.915c0,10.252,6.624,18.997,15.854,22.263v41.539c0,4.418,3.582,8,8,8h23.75c4.418,0,8-3.582,8-8v-41.399
    c9.447-3.148,16.272-11.998,16.272-22.404V364.01l37.566-18.977c0.056-0.028,0.111-0.057,0.166-0.086
    c20.337-10.879,42.287-38.075,42.287-63.042v-116.03C340.073,152.996,327.583,144.021,316.373,144.021z M220.031,432.021v-32.167
    h7.75v32.167H220.031z M244.054,376.219c0,4.21-3.524,7.636-7.857,7.636h-24.162c-4.332,0-7.856-3.425-7.856-7.636v-7.947h39.876
    V376.219z M290.317,330.796l-42.512,21.476h-47.96l-42.514-21.475c-15.775-8.483-33.383-31.16-33.383-48.893v-116.03
    c0-3.227,2.618-5.853,5.836-5.853h139.164c4.418,0,8-3.582,8-8s-3.582-8-8-8h-121V32c0-8.822,7.178-16,16-16h15.396v79.917
    c0,4.418,3.582,8,8,8s8-3.582,8-8V16h20.177v79.917c0,4.418,3.582,8,8,8s8-3.582,8-8V16h19.99v79.917c0,4.418,3.582,8,8,8
    s8-3.582,8-8V16h16.164c8.822,0,16,7.178,16,16v112.03c-4.339,0.091-7.831,3.63-7.831,7.991c0,4.418,3.582,8,8,8h16.529
    c3.599,0,7.7,3.118,7.7,5.853v116.03C324.073,299.523,306.269,322.22,290.317,330.796z"/>
</symbol></svg>