<?xml version="1.0" encoding="utf-8"?>
<!-- Generator: Adobe Illustrator 24.1.2, SVG Export Plug-In . SVG Version: 6.00 Build 0)  -->
<svg version="1.1" id="logo" xmlns="http://www.w3.org/2000/svg" xmlns:xlink="http://www.w3.org/1999/xlink" x="0px" y="0px"
	 viewBox="0 0 32 32" style="enable-background:new 0 0 32 32;" xml:space="preserve">
<style type="text/css">
	.st0{fill-rule:evenodd;clip-rule:evenodd;fill:#EF0000;}
</style>
<path id="S" class="st0" d="M8.6,26.7c1.2,0.4,2.3,0.8,3.4,1.3c1,0.4,1.9,0.9,2.8,1.3c0.9,0.4,2,0.7,3,0.7c0.6,0,1.2-0.2,1.6-0.7
	c1.2-1.4,2.6-2.8,4.1-3.9c0.8-0.6,1.4-1.1,1.7-1.4c0.7-0.5,1.2-0.8,1.5-1.1c0.1-0.1,0.2-0.3,0.2-0.5c0-0.2,0-0.4,0-0.7
	c0-0.3,0-0.5,0-0.5c0-0.1,0-0.2,0-0.3c0-0.1,0-0.2,0-0.4c-0.1-1.3-0.4-2.6-0.9-3.8c-0.5-1.2-1.3-2.3-2.3-3.2c-0.5-0.6-1.1-1-1.8-1.3
	c-0.7-0.4-1.4-0.7-2.2-0.9h-0.2c-0.6,0.7-1.2,1.3-1.9,2c-0.5,0.7-1.2,1.2-2,1.5h0c-0.7-0.2-1.3-0.6-1.8-1.1c-0.6-0.3-1-0.8-1.2-1.4
	v0l0.1-0.1c0.9-0.3,1.4-0.5,1.6-0.6c0.5-0.3,1-0.6,1.3-1.1c0.4-0.6,0.8-1.1,1-1.5h0.5c0.6,0,1.1,0,1.6,0.2H21c0.6-0.5,1-1.1,1.3-1.8
	c0.2-0.3,0.4-0.5,0.6-0.8c0.7-1.1,1.1-2.3,1.2-3.5c0-0.7-0.1-1-0.4-1c-0.1,0-0.2,0.1-0.2,0.2c0,0.5,0,0.9-0.1,1.4
	c-0.4,0.3-0.9,0.5-1.4,0.4c-1.8-0.2-3.5-0.6-5.1-1.4c-0.2-0.1-0.5-0.3-0.7-0.4C15.9,2.1,15.6,2,15.3,2H15c-0.9,0.5-1.6,1.1-2.3,1.9
	c-0.2,0.3-0.4,0.5-0.5,0.6c-0.6,0.4-1,0.8-1.2,1C10.4,6,9.8,6.6,9.2,7.3c-2,1.9-2.9,3.4-2.9,4.5c0,2.4,1.3,4.7,4,6.8
	c0.4,0.4,0.8,0.6,1.4,0.8c0.8-0.3,1.5-0.9,2-1.6c0.5-0.8,1.3-1.3,2.2-1.6c0.7,0.1,1.3,0.3,1.9,0.5c1,0.4,1.5,0.7,1.5,1
	c-0.2,0.3-0.5,0.5-0.9,0.5c-0.5,0.3-0.9,0.6-1.3,1c-0.9,1-1.5,2.1-1.8,3.4c0,0.2-0.2,0.4-0.4,0.4c-0.8-0.2-1.5-0.5-2.1-0.9
	c-0.9-0.5-2-0.9-3.1-0.9c-0.3,0-1,0.6-2,1.8C7,23.9,6.4,24.7,6,25.5c0,0,0,0.1,0,0.1c-0.3,0.5-0.6,0.9-0.9,1.5v1.4
	c0.1,0.1,0.1,0.1,0.2,0.1c0.3,0,0.5-0.2,0.5-0.5c0,0,0-0.1,0-0.1c0-0.1,0-0.2,0-0.5c0-0.2,0-0.4,0-0.5c-0.1-0.5,0.2-0.9,0.7-0.9
	c0.1,0,0.2,0,0.2,0C7.3,26.3,7.9,26.4,8.6,26.7z M16.5,29.4c-1-0.4-1.7-0.7-2.2-0.8l-4.8-2c-1.7-0.6-2.6-1-2.7-1
	C6.8,25.2,7,25,7.2,25c0,0,0.1,0,0.1,0c0.3,0.1,0.6,0.1,0.8,0.2c1,0.3,1.5,0.4,1.6,0.5c1.4,0.7,2.7,1.2,3.6,1.6
	c1.7,0.8,2.5,1.2,2.6,1.2c0.1,0,0.5,0.1,1.4,0.3c0.5,0.1,1,0.3,1.4,0.5v0l-0.2,0.3h-0.3C17.6,29.7,17,29.6,16.5,29.4L16.5,29.4
	L16.5,29.4z M8.1,23.9c1.6,0.2,3.1,0.7,4.4,1.5c1.4,0.8,2.9,1.4,4.5,1.9c1.7,0.3,2.5,0.6,2.5,0.9s-0.2,0.4-0.7,0.4
	c-1.2-0.1-2.4-0.5-3.6-1l-3.6-1.5c-0.5-0.2-1-0.5-1.4-0.8c-1-0.2-1.9-0.5-2.8-1C7.4,24,7.7,23.9,8.1,23.9L8.1,23.9L8.1,23.9z
	 M15.8,23.3c0.4-1,1-2,1.7-2.8c1-1.3,1.7-2,2.3-2H20c0.8,0.7,1.3,1.6,1.5,2.5c0.3,1,0.5,2,0.5,3c0.1,0.5-0.1,1.1-0.3,1.6
	c-1.9-0.2-3.7-0.7-5.4-1.6C16,23.8,15.8,23.6,15.8,23.3L15.8,23.3L15.8,23.3z M22.3,21c-0.1-0.5-0.3-0.9-0.5-1.3
	c-0.2-0.5-0.5-0.9-0.8-1.3c-0.6-0.6-1.1-1.1-1.4-1.4c-0.6-0.4-1.2-0.7-1.9-0.9c-0.5-0.1-1-0.3-1.4-0.6c0-0.2,0.2-0.3,0.6-0.3
	c1.8,0.1,3.5,1.1,4.4,2.6c1.2,1.4,1.8,3.1,1.9,4.9c0,0.6-0.1,1.2-0.2,1.7l-0.3,0.4c-0.1-0.1-0.1-0.3-0.1-0.4c0-0.5-0.1-1-0.1-1.5
	c-0.1-0.5-0.1-1-0.1-1.5C22.3,21.3,22.3,21.2,22.3,21z M23.5,20.5c-0.2-0.6-0.4-1.1-0.6-1.6c-0.2-0.5-0.5-1-0.8-1.4l-0.9-0.9
	c-0.4-0.6-0.9-1-1.6-1.2c-1.2-0.6-1.9-0.9-2-1c0-0.3,0.2-0.4,0.6-0.4c1.2,0.1,2.3,0.6,3.1,1.4c2.1,1.8,3.3,4.5,3.1,7.3
	c0.1,0.5-0.1,1-0.4,1.3c-0.3-0.6-0.4-1.3-0.3-2C23.6,21.5,23.5,21,23.5,20.5L23.5,20.5L23.5,20.5z M7,11.2c0.2,0.3,0.3,0.6,0.3,0.9
	c0.1,0.4,0.2,0.7,0.3,1.1c0.9,2.1,2.4,3.9,4.2,5.2c0,0.1-0.1,0.3-0.2,0.3c0,0,0,0-0.1,0c-0.6,0-1.5-0.6-2.5-1.8
	C8.4,16,7.7,15.1,7.3,14c-0.3-0.6-0.4-1.3-0.4-2C6.8,11.7,6.8,11.4,7,11.2L7,11.2L7,11.2z M11.3,17c-0.8-0.8-1.2-1.2-1.2-1.2
	c-0.7-0.9-1.2-1.7-1.7-2.5c-0.3-0.5-0.5-1.1-0.5-1.7V9.7c0-0.1,0.1-0.2,0.2-0.2c0,0,0,0,0.1,0c0.2,1.2,0.6,2.3,1.1,3.4
	c0.4,1.1,1.1,2.1,2,2.9c0.7,0.4,1.3,1,1.9,1.6c0,0.2-0.1,0.4-0.3,0.4c0,0-0.1,0-0.1,0C12.1,17.7,11.7,17.4,11.3,17L11.3,17L11.3,17z
	 M11.1,9.9c-0.3-0.8-0.5-1.6-0.5-2.4c0-0.3,0.1-0.7,0.3-1C11,6.2,11.2,6,11.5,5.9c0,0,0.1,0,0.1,0c0.8,0.5,1.3,1,1.7,1.3
	c0.8,0.6,1.6,1.1,2.5,1.5c-0.3,0.7-0.8,1.4-1.4,1.8c-0.6,0.6-1.3,1-2,1.2C11.9,11.7,11.5,11.1,11.1,9.9L11.1,9.9z M7,10.9L7,10.9
	L7,10.9C7,10.9,7,10.8,7,10.9L7,10.9z M16.5,8.2c-0.5-0.1-0.9-0.3-1.2-0.6C14,7.1,13,6.4,12.1,5.4c0-0.2,0.1-0.4,0.4-0.4
	c0,0,0.1,0,0.1,0c0.4,0.1,0.7,0.4,1,0.7l1.1,0.9c0.5,0.2,0.9,0.4,1.4,0.6l1.4,0.6C18.8,8,20.1,8.1,21.3,8l0.1,0.1
	c-0.1,0.3-0.3,0.5-0.6,0.6c-1.1,0-2.2-0.1-3.3-0.2C17.2,8.4,16.8,8.2,16.5,8.2L16.5,8.2z M13.5,3.9c0.4,0.1,0.8,0.3,1,0.5
	c0.9,0.8,2,1.3,3.2,1.7c1.1,0.3,2.3,0.5,3.5,0.5c0.2,0,0.5,0,0.7,0.1c0,0.3-0.2,0.7-0.5,0.7c-0.3,0.1-0.7,0.1-1,0.1
	c-1.1,0.1-2.1-0.1-3.1-0.6c-0.7-0.3-1.3-0.5-1.7-0.6c-0.5-0.2-1-0.5-1.4-0.9c-0.5-0.2-0.8-0.6-1.1-1.1C13.1,4.2,13.2,4,13.5,3.9
	C13.5,3.9,13.5,3.9,13.5,3.9L13.5,3.9L13.5,3.9z"/>
</svg>
